<svg xmlns="http://www.w3.org/2000/svg" viewBox="0 0 71.9 107.02"><defs><style>.cls-1{fill:#f39022;}.cls-2{fill:#1d73b5;}</style></defs><title>ear</title><g id="Layer_2" data-name="Layer 2"><g id="Layer_1-2" data-name="Layer 1"><path class="cls-1" d="M33.44,0c7.77-.08,13.26,1.14,18.4,3.66A35.53,35.53,0,0,1,65.09,14.78a33.85,33.85,0,0,1,6.27,14.78A42.63,42.63,0,0,1,69.7,49.82,39,39,0,0,1,57.58,67.35C54.2,70.24,50.77,73.08,47.43,76A21.43,21.43,0,0,0,41.9,83.2a14.71,14.71,0,0,0-1.22,6.37c.1,7.38-5.08,13.8-11.7,16.23a22.63,22.63,0,0,1-10.85,1c-5.62-.71-10.69-4.68-13.51-9.5A14,14,0,0,1,3.4,94.82a4.5,4.5,0,0,1-.2-2.64A3.83,3.83,0,0,1,7.29,89.5c3.08.37,3.45,3.44,4.91,5.55A11.23,11.23,0,0,0,18,99.33,12.39,12.39,0,0,0,26.33,99c4-1.59,6.53-4.8,6.49-9.26-.07-7.88,3.44-13.94,9-19,3-2.77,6.27-5.33,9.37-8a36.75,36.75,0,0,0,9.18-11.11,31.68,31.68,0,0,0,3.11-11.15,32.27,32.27,0,0,0-.26-9.46A27.13,27.13,0,0,0,51.94,13.49,27.16,27.16,0,0,0,41.06,8.88a27.13,27.13,0,0,0-18.24,2.75c-8.67,4.69-13.56,12-14.67,21.78a3.88,3.88,0,0,1-4.36,3.73A4.1,4.1,0,0,1,0,32.91a34,34,0,0,1,2.45-10.7A35.66,35.66,0,0,1,20.62,3.28,35.78,35.78,0,0,1,33.44,0Z"/><path class="cls-2" d="M22.2,45.72c0,.72,0,1.44,0,2.15a1.11,1.11,0,0,0,.95,1.27,15.65,15.65,0,0,1,8.41,5.93,14.69,14.69,0,0,1-2.16,19.7,15.19,15.19,0,0,1-10.11,4c-3,0-5.05-2.72-3.84-5.31A4.23,4.23,0,0,1,19,71.09,12.57,12.57,0,0,0,22.84,70c3.94-2,4.87-7.77,1.88-11a8.88,8.88,0,0,0-6.42-2.94,3.86,3.86,0,0,1-3.86-3.9,102.81,102.81,0,0,1-.13-10.38A18.38,18.38,0,0,1,22.2,28.08a19.14,19.14,0,0,1,11.91-3.8A19.76,19.76,0,0,1,53.86,42.9c.14,2.48-.7,4-2.57,4.72a3.87,3.87,0,0,1-5.4-3.54,11.34,11.34,0,0,0-5.55-9.86,11.45,11.45,0,0,0-12.19-.32,11.3,11.3,0,0,0-6,10.21c0,.54,0,1.07,0,1.61Z"/></g></g></svg>