<svg xmlns="http://www.w3.org/2000/svg" viewBox="0 0 316.49 45.26"><defs><style>.cls-1{fill:#1d73b5;}.cls-2{fill:#f39022;}</style></defs><title>Asset 2</title><g id="Layer_2" data-name="Layer 2"><g id="Layer_1-2" data-name="Layer 1"><path class="cls-1" d="M108.24,33.93c2.9-9.66,5.5-18.39,8.14-27.11C118.55-.33,118.58-.32,127,1c1.7,14.19,3.43,28.51,5.2,43.26h-8.58c-1.07-8.64-2.16-17.4-3.25-26.17l-.77-.22c-1.14,3.92-2.33,7.82-3.42,11.75-1,3.77-2.21,7.53-2.89,11.37-.61,3.39-2.62,3.67-5.46,3.75-3,.09-4.59-.74-5.34-3.9a169.21,169.21,0,0,0-7-22.53C94.47,27,93.4,35.6,92.31,44.44h-8.5q2.55-21.85,5.06-43.28C97.09-.54,97.43-.34,99.65,7q3.52,11.67,7.11,23.31C107.05,31.26,107.5,32.14,108.24,33.93Z"/><path class="cls-1" d="M261.21.78H270V44.23c-4.41,1.18-7.43.46-9.9-3.8a211.46,211.46,0,0,0-16-23.4V44.41h-8.84V1c4.45-1.27,7.44-.51,9.92,3.74a217.4,217.4,0,0,0,16,23.42Z"/><path class="cls-1" d="M181.69,44.06c-8.48,1.53-8.39,1.49-11.21-5.86a5,5,0,0,0-3.25-2.71,61.45,61.45,0,0,0-8.59-.13h-3.75c-1.52,3.28-2.28,6.85-4.46,8.91-1.34,1.27-4.85.23-8,.23,2.77-8.72,5.43-17.1,8.08-25.47,1.59-5,3.22-10,4.67-15.11.73-2.54,2-3.8,4.78-3.46,1.79.21,3.67-.19,5.42.13,1.13.2,2.76,1,3.06,1.89C172.91,16.18,177.22,30,181.69,44.06ZM167.55,27.42c-1.79-6.34-3.47-12.27-5.15-18.2l-.82.08-5.06,18.12Z"/><path class="cls-1" d="M29.7.5V8.42H18c-9.18,0-9.74.63-8.55,10.49H26.69v7.33H9.9C7.61,35.16,9,37,17.2,37H29.61v8.14c-6.58,0-13,.25-19.46-.06C2.64,44.74.07,41.75,0,34.14S0,18.73.05,11C.11,3.93,3.24.67,10.21.52,16.53.39,22.85.5,29.7.5Z"/><path class="cls-2" d="M191.88,37c4.91,0,9.58.17,14.22,0,3.37-.16,6.84-.58,6.67-5.42-.16-4.63-3.4-5.18-6.88-5.31-3.14-.13-6.29,0-9.76,0V19.3c3.87-.36,8-.36,11.85-1.27a6.91,6.91,0,0,0,4.07-4.17c.81-2.63-.85-4.83-3.71-5.1-5.07-.49-10.18-.62-15.26-.91-1.52-6.21-1.36-6.51,4.89-7.14A105.84,105.84,0,0,1,208.78,0c6.23,0,10.27,2.38,11.54,6.83,1.56,5.48,1.68,12.08-3.23,15.07,1.47,2.72,3.7,5.25,4.23,8.09,1.84,10-2.73,15.18-13,15.19A111.74,111.74,0,0,1,197,44.49C191.16,43.91,191.17,43.84,191.88,37Z"/><path class="cls-1" d="M70.84,8H56.07c-3.52,0-5.72,1.37-5.87,5.28-.16,4.15,2.36,5.12,5.73,5.3a12.34,12.34,0,0,0,1.36,0c12.76-.79,15.71,6.1,14.43,16.63-.62,5.12-3,8.49-8,9a101.82,101.82,0,0,1-19.28-.28c-1.16-.11-2-3.82-3.37-6.79,6.58,0,11.65,0,16.73,0,3,0,5.39-1,5.69-4.48s-1-5.51-4.72-5.64a50.33,50.33,0,0,1-8.52-.71c-6-1.28-8.29-4.38-8.53-11-.31-8.4,1.65-13.2,7.49-14.11C55.33.26,61.76.77,68,1.35,69,1.45,69.71,5.24,70.84,8Z"/><path class="cls-1" d="M304,44.31c-1.52.18-2.38.35-3.25.37-1.8,0-3.59,0-6.15,0C297.41,27.89,286,15.58,281.83,1,290-.44,290.08-.39,293,6.66c2,4.84,4,9.68,6.43,15.59l6.37-15.66c2.73-6.72,2.73-6.72,10.7-5.65C312.73,15.58,300.85,27.76,304,44.31Z"/></g></g></svg>